<svg xmlns="http://www.w3.org/2000/svg" height="300px" width="300px" fill="#000000" viewBox="0 0 24 24" enable-background="new 0 0 24 24" x="0px" y="0px"><path d="M17.004 22.004l-.004-7.004c0-.55.446-.996.996-.996l3.637.004c.755 0 1.367-.612 1.367-1.367v-.002c0-.405-.156-.794-.437-1.086l-9.087-9.92c-.396-.432-.934-.629-1.472-.629-.55 0-1.106.188-1.511.632l-9.056 9.917c-.28.292-.437.681-.437 1.086 0 .755.612 1.366 1.366 1.367l3.642.002c.55 0 .996.446.996.996l.004 7.004c0 .55.446.996.996.996l8.004-.004c.55 0 .996-.446.996-.996z" stroke="#ffffff" stroke-width="2" stroke-linecap="round" stroke-linejoin="round" stroke-miterlimit="10" fill="#ffffff"/></svg>
