<svg width="32" height="32" viewBox="0 0 32 32" class="icon stroke" fill="none" xmlns="http://www.w3.org/2000/svg"><title>Download</title><path fill="#b4b9c2" fill-rule="evenodd" clip-rule="evenodd" d="M17 7C17 6.44772 16.5523 6 16 6C15.4477 6 15 6.44772 15 7V14.7165L12.3444 12.2652C11.9386 11.8906 11.3059 11.9159 10.9313 12.3217C10.5567 12.7275 10.582 13.3602 10.9878 13.7348L15.3149 17.7291C15.3898 17.7995 15.4732 17.8563 15.5617 17.8994C15.8384 18.0342 16.1627 18.0329 16.4372 17.8994C16.5257 17.8563 16.6091 17.7995 16.684 17.7291L21.0111 13.7348C21.4169 13.3602 21.4422 12.7275 21.0676 12.3217C20.693 11.9159 20.0603 11.8906 19.6545 12.2652L17 14.7155V7ZM25 17C25.5523 17 26 17.4477 26 18V21C26 23.7614 23.7614 26 21 26H11C8.23858 26 6 23.7614 6 21V18C6 17.4477 6.44772 17 7 17C7.55228 17 8 17.4477 8 18V21C8 22.6569 9.34315 24 11 24H21C22.6569 24 24 22.6569 24 21V18C24 17.4477 24.4477 17 25 17Z"></path></svg>
