<svg width="32" height="32" viewBox="0 0 32 32" class="icon stroke" fill="none" xmlns="http://www.w3.org/2000/svg"><title>Embed</title><path fill="#b4b9c2" fill-rule="evenodd" clip-rule="evenodd" d="M4.00002 15.4945C3.99857 15.7485 4.09325 16.0031 4.28476 16.1991L10.6252 22.6888C11.0112 23.0839 11.6443 23.0912 12.0393 22.7052C12.4343 22.3192 12.4417 21.6859 12.0557 21.2909L6.39259 15.4945L12.0557 9.69888C12.4417 9.30387 12.4343 8.67075 12.0393 8.28476C11.6443 7.89878 11.0112 7.9061 10.6252 8.30112L4.28476 14.7899C4.09325 14.9859 3.99857 15.2405 4.00002 15.4945Z"></path><path fill="#b4b9c2" fill-rule="evenodd" clip-rule="evenodd" d="M25.9479 15.4955L20.2848 21.2911C19.8988 21.6861 19.9061 22.3192 20.3011 22.7052C20.6961 23.0912 21.3293 23.0839 21.7153 22.6889L28.0557 16.2001C28.2472 16.0041 28.3419 15.7495 28.3404 15.4955C28.3419 15.2415 28.2472 14.9869 28.0557 14.7909L21.7153 8.30115C21.3293 7.90608 20.6961 7.89876 20.3011 8.2848C19.9061 8.67083 19.8988 9.30405 20.2848 9.69912L25.9479 15.4955ZM17.6252 12.3011L13.2848 16.7899C12.8988 17.1849 12.9061 17.818 13.3011 18.204C13.6962 18.59 14.3293 18.5827 14.7153 18.1877L19.0557 13.6989C19.4417 13.3039 19.4344 12.6707 19.0393 12.2848C18.6443 11.8988 18.0112 11.9061 17.6252 12.3011Z"></path></svg>
